<?xml version="1.0" encoding="utf-8"?>
<!-- Generator: Adobe Illustrator 25.2.0, SVG Export Plug-In . SVG Version: 6.00 Build 0)  -->
<svg version="1.1" id="Layer_1" xmlns="http://www.w3.org/2000/svg" xmlns:xlink="http://www.w3.org/1999/xlink" x="0px" y="0px"
	 viewBox="0 0 1080 1080" style="enable-background:new 0 0 1080 1080;" xml:space="preserve">
<style type="text/css">
	.st0{fill:#39D88E;}
	.st1{fill:#0288D1;}
</style>
<g>
	<g>
		<circle class="st0" cx="336.3" cy="130.3" r="124.6"/>
		<circle class="st1" cx="751.3" cy="130.3" r="124.6"/>
		<path class="st1" d="M965,432.7c-173.5-238.2-416.2-35.2-416.2-35.2c-188.8-224-385.4-43.9-385.4-43.9s218.4,206.4,370,344.7
			c144.5,132,310.9,86.2,326.1,81.6c0.1,0,0.1-0.1,0.3-0.1c0.3-0.3,0.8-0.4,1.2-0.4c0.1,0,0.1-0.1,0.3-0.1
			C1099.8,627.9,965,432.7,965,432.7z"/>
		<path class="st0" d="M112.8,392.1c0,0-107.5,135.5,50.5,301.6S541,1074.3,541,1074.3l229.2-213c0,0-126.7,17.6-213.8-58.6
			S112.8,392.1,112.8,392.1z"/>
	</g>
</g>
</svg>
