<svg id="Layer_1" data-name="Layer 1" xmlns="http://www.w3.org/2000/svg" viewBox="0 0 915.07 1056.14"><defs><style>.cls-1{fill:#fff;}.cls-2{fill:#4b89b5;}</style></defs><circle class="cls-1" cx="256.19" cy="123.15" r="123.15"/><circle class="cls-2" cx="666.36" cy="123.15" r="123.15"/><path class="cls-2" d="M960,434c-171.48-235.42-411.35-34.79-411.35-34.79-186.6-221.39-380.91-43.39-380.91-43.39s215.86,204,365.69,340.68c142.81,130.47,307.27,85.2,322.3,80.65.1,0,.1-.1.29-.1a1.76,1.76,0,0,1,1.19-.39c.1,0,.1-.1.3-.1C1093.26,626.88,960,434,960,434Z" transform="translate(-82.46 -11.93)"/><path class="cls-1" d="M117.76,393.82S11.52,527.74,167.67,691.91,541,1068.07,541,1068.07L767.5,857.55S642.28,875,556.19,799.64,117.76,393.82,117.76,393.82Z" transform="translate(-82.46 -11.93)"/></svg>