<svg id="Layer_1" data-name="Layer 1" xmlns="http://www.w3.org/2000/svg" xmlns:xlink="http://www.w3.org/1999/xlink" viewBox="0 0 1199 791.33"><defs><style>.cls-1{fill:none;}.cls-2{clip-path:url(#clip-path);}</style><clipPath id="clip-path" transform="translate(-128 -159)"><path class="cls-1" d="M621,732s66-270,274-424,429-140.9,429-140.9,6,161.9,0,231.9-80,78-80,78c-203.5,28.5-302.2,225.14-311,244-10.5,22.5-32,81-45,143s-74.39,65-74.39,65H594C597,842,621,732,621,732Zm503.5-25.5C1039.76,792.18,1023.42,929,1023.42,929h303.25V611.48C1299.5,611.5,1214.5,615.5,1124.5,706.5Z"/></clipPath></defs><g class="cls-2"><image width="5184" height="3456" transform="scale(0.23 0.23)" xlink:href="C:%5CUsers%5CAaron%5CDownloads%5Cyannis-h-uaPaEM7MiQQ-unsplash.jpg"/></g></svg>