<svg id="Layer_1" data-name="Layer 1" xmlns="http://www.w3.org/2000/svg" viewBox="0 0 915.1 1056.1"><defs><style>.cls-1{fill:#0068ff;}</style></defs><circle class="cls-1" cx="291.2" cy="193.5" r="101.7"/><circle class="cls-1" cx="630.1" cy="193.5" r="101.7"/><path class="cls-1" d="M804.5,440.5C662.9,246,464.7,411.8,464.7,411.8,310.5,228.8,150,375.9,150,375.9S328.3,544.4,452.1,657.4C570.1,765.2,706,727.8,718.4,724c.1,0,.1-.1.2-.1a1.69,1.69,0,0,1,1-.3c.1,0,.1-.1.2-.1C914.6,599.8,804.5,440.5,804.5,440.5Z"/><path class="cls-1" d="M108.7,407.3S20.9,517.9,149.9,653.6,458.3,964.4,458.3,964.4L645.4,790.5s-103.5,14.4-174.6-47.8S108.7,407.3,108.7,407.3Z"/></svg>