<svg id="Layer_1" data-name="Layer 1" xmlns="http://www.w3.org/2000/svg" viewBox="0 0 1366 768"><defs><style>.cls-1,.cls-3{fill:#fff;}.cls-2{fill:#4b89b5;}.cls-3{font-size:112.24px;font-family:LucidaCalligraphy-Italic, Lucida Calligraphy;font-style:italic;}</style></defs><rect width="1366" height="768"/><circle class="cls-1" cx="121.35" cy="209.99" r="52.99"/><circle class="cls-2" cx="297.85" cy="209.99" r="52.99"/><path class="cls-2" d="M388.74,338.61c-73.79-101.31-177-15-177-15C131.43,228.37,47.81,305,47.81,305s92.89,87.78,157.37,146.6c61.45,56.14,132.23,36.66,138.69,34.71,0,0,0,0,.13,0a.79.79,0,0,1,.51-.17s0,0,.13,0C446.07,421.63,388.74,338.61,388.74,338.61Z" transform="translate(0 0)"/><path class="cls-1" d="M26.29,321.34S-19.43,379,47.77,449.62,208.41,611.49,208.41,611.49l97.48-90.59S252,528.38,215,496,26.29,321.34,26.29,321.34Z" transform="translate(0 0)"/><text class="cls-3" transform="translate(586.04 383.72)">We Care Act<tspan x="0" y="134.69">NYC</tspan></text></svg>