<?xml version="1.0" encoding="utf-8"?>
<!-- Generator: Adobe Illustrator 25.2.0, SVG Export Plug-In . SVG Version: 6.00 Build 0)  -->
<svg version="1.1" id="Layer_1" xmlns="http://www.w3.org/2000/svg" xmlns:xlink="http://www.w3.org/1999/xlink" x="0px" y="0px"
	 viewBox="0 0 915.1 1056.1" style="enable-background:new 0 0 915.1 1056.1;" xml:space="preserve">
<style type="text/css">
	.st0{fill:#3C6E91;}
	.st1{fill:#4B89B5;}
</style>
<circle class="st0" cx="291.2" cy="193.5" r="101.7"/>
<circle class="st1" cx="630.1" cy="193.5" r="101.7"/>
<path class="st1" d="M804.5,440.5C662.9,246,464.7,411.8,464.7,411.8C310.5,228.8,150,375.9,150,375.9s178.3,168.5,302.1,281.5
	c118,107.8,253.9,70.4,266.3,66.6c0.1,0,0.1-0.1,0.2-0.1c0.3-0.2,0.6-0.3,1-0.3c0.1,0,0.1-0.1,0.2-0.1
	C914.6,599.8,804.5,440.5,804.5,440.5z"/>
<path class="st0" d="M108.7,407.3c0,0-87.8,110.6,41.2,246.3s308.4,310.8,308.4,310.8l187.1-173.9c0,0-103.5,14.4-174.6-47.8
	S108.7,407.3,108.7,407.3z"/>
</svg>
