<?xml version="1.0" encoding="utf-8"?>
<!-- Generator: Adobe Illustrator 25.2.0, SVG Export Plug-In . SVG Version: 6.00 Build 0)  -->
<svg version="1.1" id="Layer_1" xmlns="http://www.w3.org/2000/svg" xmlns:xlink="http://www.w3.org/1999/xlink" x="0px" y="0px"
	 viewBox="0 0 915.1 1056.1" style="enable-background:new 0 0 915.1 1056.1;" xml:space="preserve">
<style type="text/css">
	.st0{fill:#DBDBDB;}
	.st1{fill:#579C59;}
</style>
<circle class="st0" cx="256.3" cy="123.1" r="123.1"/>
<circle class="st1" cx="666.4" cy="123.1" r="123.1"/>
<path class="st1" d="M877.5,422c-171.4-235.4-411.3-34.7-411.3-34.7C279.6,165.8,85.4,343.8,85.4,343.8S301.2,547.8,451,684.5
	c142.8,130.5,307.3,85.2,322.3,80.6c0.1,0,0.1-0.1,0.2-0.1c0.4-0.2,0.7-0.4,1.2-0.4c0.1,0,0.1-0.1,0.2-0.1
	C1010.8,614.8,877.5,422,877.5,422z"/>
<path class="st0" d="M35.4,381.8c0,0-106.3,133.9,49.9,298.1s373.3,376.2,373.3,376.2L685,845.6c0,0-125.3,17.4-211.3-57.9
	S35.4,381.8,35.4,381.8z"/>
</svg>
